<?xml version="1.0" standalone="no"?>
<!DOCTYPE svg PUBLIC "-//W3C//DTD SVG 1.1//EN" "http://www.w3.org/Graphics/SVG/1.1/DTD/svg11.dtd">
<svg t="1558604770419" class="icon" style="" viewBox="0 0 1024 1024" version="1.1" xmlns="http://www.w3.org/2000/svg" p-id="1995" xmlns:xlink="http://www.w3.org/1999/xlink" width="128" height="128">
<defs>
<style type="text/css"></style>
</defs>
<path d="M387.232323 146.488889c11.507071 0 20.816162 9.309091 20.816162 20.816162v252.638383c0 11.507071-9.309091 20.816162-20.816162 20.816162H134.593939c-11.507071 0-20.816162-9.309091-20.816161-20.816162V167.305051c0-11.507071 9.309091-20.816162 20.816161-20.816162h252.638384" fill="currentColor" p-id="1996"></path><path d="M387.232323 98.391919H134.593939c-38.012121 0-68.783838 30.771717-68.783838 68.783839v252.638383c0 38.012121 30.771717 68.783838 68.783838 68.783839h252.638384c38.012121 0 68.783838-30.771717 68.783839-68.783839V167.305051c0-38.012121-30.771717-68.913131-68.783839-68.913132z" fill="currentColor" p-id="1997"></path><path d="M387.232323 618.278788c11.507071 0 20.816162 9.309091 20.816162 20.816161v252.638384c0 11.507071-9.309091 20.816162-20.816162 20.816162H134.593939c-11.507071 0-20.816162-9.309091-20.816161-20.816162V639.094949c0-11.507071 9.309091-20.816162 20.816161-20.816161h252.638384" fill="currentColor" p-id="1998"></path><path d="M387.232323 570.181818H134.593939c-38.012121 0-68.783838 30.771717-68.783838 68.783839v252.638383c0 38.012121 30.771717 68.783838 68.783838 68.783839h252.638384c38.012121 0 68.783838-30.771717 68.783839-68.783839V639.094949c0-38.012121-30.771717-68.913131-68.783839-68.913131z" fill="currentColor" p-id="1999"></path><path d="M856.953535 618.278788c11.507071 0 20.816162 9.309091 20.816162 20.816161v252.638384c0 11.507071-9.309091 20.816162-20.816162 20.816162H604.315152c-11.507071 0-20.816162-9.309091-20.816162-20.816162V639.094949c0-11.507071 9.309091-20.816162 20.816162-20.816161h252.638383" fill="currentColor" p-id="2000"></path><path d="M856.953535 570.181818H604.315152c-38.012121 0-68.783838 30.771717-68.783839 68.783839v252.638383c0 38.012121 30.771717 68.783838 68.783839 68.783839h252.638383c38.012121 0 68.783838-30.771717 68.783839-68.783839V639.094949c0-38.012121-30.771717-68.913131-68.783839-68.913131z" fill="currentColor" p-id="2001"></path><path d="M730.634343 113.777778c5.559596 0 10.860606 2.19798 14.739394 6.076767l158.90101 158.901011c8.145455 8.145455 8.145455 21.333333 0 29.478787l-158.90101 159.030303c-5.30101 5.30101-11.507071 6.076768-14.739394 6.076768s-9.438384-0.775758-14.739394-6.076768l-158.90101-159.030303c-8.145455-8.145455-8.145455-21.333333 0-29.478787L715.894949 119.854545c3.878788-3.878788 9.179798-6.076768 14.739394-6.076767" fill="currentColor" p-id="2002"></path><path d="M730.634343 65.810101c-18.230303 0-35.814141 7.240404-48.614141 20.169697l-159.030303 158.90101c-26.892929 26.892929-26.892929 70.464646 0 97.357576l158.90101 158.90101c12.929293 12.929293 30.383838 20.169697 48.614142 20.169697 17.583838 0 35.29697-6.723232 48.614141-20.169697l158.90101-158.90101c26.892929-26.892929 26.892929-70.464646 0-97.357576L779.248485 85.979798c-12.929293-12.929293-30.383838-20.169697-48.614142-20.169697z" fill="currentColor" p-id="2003"></path><path d="M415.030303 146.488889V452.525253l-306.424242-5.171718V146.488889zM100.848485 605.090909h321.939394v316.767677H95.676768l-6.464647-316.767677zM559.838384 605.090909h342.626262v316.767677l-342.626262 6.464646zM521.050505 281.858586L724.040404 84.040404l217.212121 197.818182-210.10101 230.141414-218.50505-218.505051z" fill="currentColor" p-id="2004"></path></svg>