<svg xmlns="http://www.w3.org/2000/svg" viewBox="0 0 97.4 111.95"><title>资源 2</title><path fill="currentColor" d="M53.13.06V18.88c0,6.54,3.06,9.55,9.7,9.58,6.22,0,12.46,0,19.14,0v6.49c0,8.56.11,17.13-.1,25.69a8.08,8.08,0,0,1-2.09,5.09Q61.24,84.18,42.39,102.35a5.89,5.89,0,0,1-3.67,1.56C28.84,104,19,104,9.08,104,3.54,103.94,0,100.4,0,94.9Q0,53.07,0,11.25C0,5.48,4.08.29,9.58.18,23.93-.14,38.31.06,53.13.06ZM40.82,48.15c6.36,0,12.72,0,19.1,0,3.68,0,5.86-1.65,5.86-4.3s-2.1-4.29-5.59-4.3q-19.43-.09-38.85,0c-3.58,0-5.36,1.75-5.24,4.53s1.85,4,5.3,4.06C27.87,48.18,34.34,48.15,40.82,48.15Zm.3,7.66c-6.69,0-13.37,0-20.06,0-2.78,0-4.74,1-4.94,4-.19,2.72,1.58,4.32,5,4.34q19.73.08,39.46,0c3.28,0,5.25-1.68,5.24-4.18s-2-4.16-5.24-4.17C54,55.79,47.58,55.81,41.12,55.81Zm8.1,55.29c1.56-3.74,2.26-8.29,4.86-11.06C62.93,90.6,72.44,81.79,82.14,72.3c2.3,2.9,4.81,5.54,6.9,8.18C84.48,85.18,79,90.8,73.64,96.18c-3.16,3.2-6.68,6.07-9.65,9.43-3.74,4.21-8.9,4.65-13.61,6.35Z"/><path fill="currentColor" d="M71.33,23.53c-2.53,0-5.05.13-7.56,0-3.55-.23-6-2.55-6.14-6.08-.19-4.81-.12-9.65,0-14.46C57.67,2,58.28.56,59,.29s2.14.32,2.84,1q9.38,9,18.56,18.17c.65.65,1.22,2.14.91,2.81s-1.75,1.16-2.72,1.23C76.16,23.65,73.74,23.54,71.33,23.53Zm12.9,46c2.45-1.36,5.16-4.12,7.45-3.8s5.44,3.59,5.7,5.85c.25,2.1-2.82,4.6-4.71,7.34Z"/></svg>